#!OML:ASF E:\Steps\Project 1\Capture day 1\Session 2\Subject.ASF
:FULLY-SPECIFIED
:DEGREES
426
root 11.9277 18.004 8.35189 -155.828 -0.878227 177.1
lowerback -29.0367 -4.42656 -13.6127
upperback -0.434423 -1.73206 -2.00365
thorax 15.0028 -1.97287 4.32914
lowerneck -1.7939 -3.15226 0.11838
upperneck 17.1371 -4.22959 6.89332
head 5.59964 -1.12774 1.9619
rclavicle 1.25234e-014 -3.18055e-014
rhumerus -34.5522 -17.9527 -77.7729
rradius 25.8198
rwrist 2.6866
rhand -4.7643 -52.0208
rfingers 7.12502
rthumb 21.0199 279.098
lclavicle 1.25234e-014 -3.18055e-014
lhumerus -30.8634 11.7968 71.8033
lradius 12.5024
lwrist -14.3114
lhand -20.7339 -9.63379
lfingers 7.12502
lthumb 5.63126 20.2714
rfemur -26.4317 9.1459 17.5928
rtibia 13.7604
rfoot -20.3129 -6.63344
rtoes -19.9158
lfemur -24.6376 -11.6527 -22.7201
ltibia 10.8503
lfoot -7.47685 -6.51632
ltoes -12.0864
427
root 11.9329 18.0049 8.34279 -155.785 -0.987345 177.104
lowerback -29.1121 -4.41415 -13.5521
upperback -0.383448 -1.71191 -1.96271
thorax 15.0975 -1.96297 4.34829
lowerneck -1.73253 -3.27244 0.0731152
upperneck 16.7655 -4.42274 7.05434
head 5.48467 -1.23927 2.00698
rclavicle -2.28602e-014 -5.24792e-014
rhumerus -34.4258 -17.9573 -77.905
rradius 25.9414
rwrist 2.56842
rhand -4.88206 -52.1459
rfingers 7.12502
rthumb 20.9067 278.961
lclavicle -2.28602e-014 -5.24792e-014
lhumerus -30.7505 12.4362 71.4453
lradius 12.2352
lwrist -15.1295
lhand -20.8774 -9.94506
lfingers 7.12502
lthumb 5.49275 19.9637
rfemur -26.262 9.07738 17.63
rtibia 13.4818
rfoot -20.2425 -6.58125
rtoes -19.1564
lfemur -24.5315 -11.6012 -22.6914
ltibia 10.6118
lfoot -7.36597 -6.62351
ltoes -12.3609
428
root 11.9377 18.0078 8.33294 -155.803 -1.07337 177.099
lowerback -29.1391 -4.4313 -13.5008
upperback -0.335418 -1.73737 -1.90038
thorax 15.1755 -1.97275 4.37956
lowerneck -1.69883 -3.1652 -0.0595906
upperneck 16.1934 -4.30273 7.14137
head 5.30051 -1.22632 2.058
rclavicle -1.39149e-015 -4.77083e-015
rhumerus -34.2081 -17.6783 -78.08
rradius 25.9631
rwrist 2.28965
rhand -4.97946 -52.7229
rfingers 7.12502
rthumb 20.8131 278.373
lclavicle -1.39149e-015 -4.77083e-015
lhumerus -30.7409 12.9667 71.169
lradius 12.0569
lwrist -15.7383
lhand -20.9959 -10.5199
lfingers 7.12502
lthumb 5.37831 19.3918
rfemur -25.9421 9.09307 17.6474
rtibia 13.0192
rfoot -20.0507 -6.60629
rtoes -18.301
lfemur -24.3557 -11.5908 -22.6675
ltibia 10.3733
lfoot -7.25407 -6.67969
ltoes -12.0001
429
root 11.9388 18.0109 8.32467 -155.821 -1.0016 177.075
lowerback -29.1305 -4.4197 -13.4201
upperback -0.319745 -1.74806 -1.83872
thorax 15.1958 -1.97154 4.40313
lowerneck -1.80828 -2.97891 -0.241308
upperneck 15.6807 -4.07267 7.12769
head 5.15413 -1.16706 2.0896
rclavicle -2.34566e-014 1.74931e-014
rhumerus -33.9526 -17.282 -78.2409
rradius 25.9359
rwrist 1.96593
rhand -5.11291 -53.0157
rfingers 7.12502
rthumb 20.6849 278.067
lclavicle -2.34566e-014 1.74931e-014
lhumerus -30.8538 13.8122 70.7807
lradius 11.9081
lwrist -16.6735
lhand -20.9683 -10.7365
lfingers 7.12502
lthumb 5.40493 19.1745
rfemur -25.6872 9.09896 17.6061
rtibia 12.5836
rfoot -19.8327 -6.53029
rtoes -18.0856
lfemur -24.2156 -11.5787 -22.7015
ltibia 10.2247
lfoot -7.22768 -6.62676
ltoes -11.3433
430
root 11.9399 18.0118 8.31767 -155.798 -0.959005 177.055
lowerback -29.0863 -4.38763 -13.3191
upperback -0.390161 -1.76293 -1.79359
thorax 15.0962 -1.96597 4.39838
lowerneck -1.839 -3.05706 -0.253819
upperneck 15.6065 -4.17316 6.98281
head 5.13785 -1.23505 2.03976
rclavicle 9.74045e-015 9.22361e-014
rhumerus -34.0408 -16.914 -78.3858
rradius 26.192
rwrist 1.67797
rhand -5.14976 -52.637
rfingers 7.12502
rthumb 20.6495 278.441
lclavicle 9.74045e-015 9.22361e-014
lhumerus -31.1119 14.1129 70.5763
lradius 11.9492
lwrist -17.051
lhand -21.0303 -10.5462
lfingers 7.12502
lthumb 5.3451 19.3664
rfemur -25.5395 9.03249 17.5858
rtibia 12.2853
rfoot -19.7753 -6.299
rtoes -17.9531
lfemur -24.1151 -11.4483 -22.7589
ltibia 10.0363
lfoot -7.12652 -6.70854
ltoes -11.0406
431
root 11.9433 18.0119 8.31037 -155.757 -1.03007 177.074
lowerback -29.0698 -4.3687 -13.219
upperback -0.49222 -1.7985 -1.74266
thorax 14.9751 -1.96945 4.39084
lowerneck -1.6753 -3.28667 -0.204828
upperneck 15.6755 -4.46282 6.87507
head 5.1395 -1.37634 1.98568
rclavicle -1.33186e-014 -2.38542e-014
rhumerus -34.3124 -16.771 -78.4285
rradius 26.4602
rwrist 1.64619
rhand -4.98202 -52.0385
rfingers 7.12502
rthumb 20.8107 279.058
lclavicle -1.33186e-014 -2.38542e-014
lhumerus -31.3372 13.7699 70.6401
lradius 12.0256
lwrist -16.7041
lhand -21.0504 -10.6083
lfingers 7.12502
lthumb 5.32571 19.3048
rfemur -25.4093 8.98968 17.6418
rtibia 12.0355
rfoot -19.8755 -6.19045
rtoes -17.9236
lfemur -23.9666 -11.324 -22.7352
ltibia 9.6714
lfoot -6.92806 -6.83011
ltoes -10.7706
432
root 11.946 18.0134 8.30554 -155.67 -1.04549 177.095
lowerback -29.153 -4.32287 -13.148
upperback -0.514027 -1.75607 -1.69376
thorax 14.9824 -1.94649 4.42284
lowerneck -1.60804 -3.39619 -0.171793
upperneck 15.4104 -4.61455 6.82614
head 5.05028 -1.47079 1.95635
rclavicle 3.57812e-015 -1.59028e-014
rhumerus -34.31 -16.8141 -78.4118
rradius 26.514
rwrist 1.67401
rhand -4.83208 -51.7623
rfingers 7.12502
rthumb 20.9547 279.35
lclavicle 3.57812e-015 -1.59028e-014
lhumerus -31.3094 13.616 70.7393
lradius 11.9844
lwrist -16.6181
lhand -20.9401 -10.9959
lfingers 7.12502
lthumb 5.43221 18.9144
rfemur -25.3584 8.90275 17.6845
rtibia 11.7902
rfoot -19.6663 -6.25252
rtoes -17.7479
lfemur -23.8569 -11.3152 -22.671
ltibia 9.26122
lfoot -6.74305 -6.78762
ltoes -10.4324
433
root 11.9466 18.0148 8.30171 -155.54 -0.981494 177.125
lowerback -29.3158 -4.25715 -13.0306
upperback -0.463426 -1.67329 -1.67698
thorax 15.1042 -1.90743 4.40764
lowerneck -1.80272 -3.33041 -0.0662363
upperneck 14.9252 -4.55767 6.753
head 4.92807 -1.47683 1.91306
rclavicle 6.95746e-015 -2.22639e-014
rhumerus -33.9587 -16.9155 -78.4925
rradius 26.3509
rwrist 1.73529
rhand -4.8398 -52.1802
rfingers 7.12502
rthumb 20.9473 278.931
lclavicle 6.95746e-015 -2.22639e-014
lhumerus -31.1129 13.5164 70.8565
lradius 11.9917
lwrist -16.557
lhand -20.9704 -11.3003
lfingers 7.12502
lthumb 5.40289 18.6108
rfemur -25.3612 8.72693 17.7205
rtibia 11.5171
rfoot -19.4422 -6.0733
rtoes -17.9637
lfemur -23.8363 -11.3553 -22.597
ltibia 8.94362
lfoot -6.66996 -6.64431
ltoes -10.4914
434
root 11.9472 18.0146 8.29619 -155.363 -0.91789 177.13
lowerback -29.5231 -4.22019 -12.8793
upperback -0.414311 -1.63407 -1.68895
thorax 15.2505 -1.88694 4.32286
lowerneck -2.1645 -3.22969 0.0764224
upperneck 14.5076 -4.45632 6.56743
head 4.85066 -1.46324 1.82905
rclavicle 1.66979e-014 -4.77083e-015
rhumerus -33.5602 -16.9843 -78.6571
rradius 26.1487
rwrist 1.79927
rhand -4.86665 -52.7064
rfingers 7.12502
rthumb 20.9215 278.402
lclavicle 1.66979e-014 -4.77083e-015
lhumerus -30.8572 13.3112 70.9718
lradius 12.0613
lwrist -16.2096
lhand -20.962 -11.355
lfingers 7.12502
lthumb 5.41101 18.556
rfemur -25.4123 8.65659 17.7025
rtibia 11.2667
rfoot -19.3011 -5.94695
rtoes -18.1295
lfemur -23.9367 -11.3885 -22.561
ltibia 8.80873
lfoot -6.71001 -6.50881
ltoes -10.7024
435
root 11.9492 18.0135 8.29179 -155.154 -0.864488 177.057
lowerback -29.7554 -4.18081 -12.8235
upperback -0.371612 -1.55882 -1.70669
thorax 15.3939 -1.85813 4.29499
lowerneck -2.38348 -3.24092 0.0459139
upperneck 14.0379 -4.49668 6.46594
head 4.7435 -1.52588 1.79494
rclavicle 3.97569e-015 8.26944e-014
rhumerus -33.4015 -17.058 -78.7412
rradius 26.1741
rwrist 1.74557
rhand -4.82442 -52.8197
rfingers 7.12502
rthumb 20.9621 278.293
lclavicle 3.97569e-015 8.26944e-014
lhumerus -30.5696 13.2041 71.0946
lradius 12.1693
lwrist -15.9656
lhand -20.8279 -11.2936
lfingers 7.12502
lthumb 5.5405 18.614
rfemur -25.5535 8.53244 17.6043
rtibia 11.1207
rfoot -19.2212 -5.87779
rtoes -18.4211
lfemur -24.1095 -11.3758 -22.6277
ltibia 8.75489
lfoot -6.68426 -6.49754
ltoes -10.4972
436
root 11.9507 18.0122 8.28399 -155.052 -0.836171 176.97
lowerback -29.929 -4.16016 -12.8147
upperback -0.373074 -1.512 -1.71389
thorax 15.4624 -1.84227 4.29432
lowerneck -2.22591 -3.27579 -0.113585
upperneck 13.6859 -4.54339 6.55587
head 4.61575 -1.57469 1.84786
rclavicle 8.74653e-015 -4.45278e-014
rhumerus -33.4668 -17.1726 -78.6941
rradius 26.2315
rwrist 1.85024
rhand -4.65608 -52.8468
rfingers 7.12502
rthumb 21.1238 278.284
lclavicle 8.74653e-015 -4.45278e-014
lhumerus -30.5575 13.6006 70.9499
lradius 12.2372
lwrist -16.4089
lhand -20.9053 -11.4132
lfingers 7.12502
lthumb 5.46578 18.4963
rfemur -25.4933 8.43472 17.5022
rtibia 10.8473
rfoot -19.165 -5.84265
rtoes -18.3345
lfemur -24.0952 -11.4597 -22.7093
ltibia 8.58398
lfoot -6.57285 -6.47888
ltoes -9.71939
437
root 11.9526 18.0112 8.27482 -155.035 -0.89442 176.913
lowerback -29.9649 -4.20792 -12.7973
upperback -0.430914 -1.59287 -1.6809
thorax 15.4235 -1.87639 4.28681
lowerneck -2.05866 -3.26705 -0.128175
upperneck 13.7494 -4.51223 6.51548
head 4.60508 -1.55863 1.84214
rclavicle -6.16232e-015 -2.22639e-014
rhumerus -33.5336 -17.0336 -78.6938
rradius 26.2073
rwrist 1.87327
rhand -4.65144 -52.7966
rfingers 7.12502
rthumb 21.1283 278.335
lclavicle -6.16232e-015 -2.22639e-014
lhumerus -30.7716 13.5785 70.9645
lradius 12.4213
lwrist -16.4134
lhand -21.0743 -11.2908
lfingers 7.12502
lthumb 5.3026 18.6229
rfemur -25.2759 8.51084 17.4238
rtibia 10.4861
rfoot -19.115 -5.97084
rtoes -17.6471
lfemur -23.9822 -11.505 -22.768
ltibia 8.39791
lfoot -6.42956 -6.51399
ltoes -8.86509
